<svg t="1719235779585" class="icon" viewBox="0 0 1279 1024" version="1.1" xmlns="http://www.w3.org/2000/svg" p-id="28921" width="200" height="200"><path d="M1037.14636 242.803063l223.988416 223.988415c24.998707 24.998707 24.998707 65.396618 0 90.395325l-223.988416 223.988416c-24.998707 24.998707-65.396618 24.998707-90.395325 0s-24.998707-65.396618 0-90.395325l178.590764-178.790753-178.590764-178.790754c-24.998707-24.998707-24.998707-65.396618 0-90.395324s65.396618-24.998707 90.395325 0z m-703.963592 90.395324L154.49201 511.989141l178.690758 178.790753c24.998707 24.998707 24.998707 65.396618 0 90.395325s-65.396618 24.998707-90.395325 0L18.743031 557.186803c-24.990708-24.998707-24.990708-65.396618 0-90.395325l224.044412-223.988415c24.998707-24.998707 65.396618-24.998707 90.395325 0s24.998707 65.396618 0 90.395324z" p-id="28922"></path><path d="M829.557096 81.5914l-255.98676 895.973662c-9.799493 33.998242-45.197662 53.597228-79.195904 43.997724-33.998242-9.799493-53.597228-45.197662-43.997725-79.195904l255.986761-895.933663c9.799493-33.986242 45.197662-53.665225 79.195904-43.953727 33.998242 9.709498 53.597228 45.133666 43.997724 79.111908z" opacity=".4" p-id="28923"></path></svg>